PathFileType	4	(X/Y/Z)	E:\Qualisys_Data\Carbon_Farble_Plate\Data\Amateur_Runner\S14\T2\S14T2V11_c3d.trc
DataRate	CameraRate	NumFrames	NumMarkers	Units	OrigDataRate	OrigDataStartFrame	OrigNumFrames
200.000000	200.000000	5	39	mm	200.000000	83	334
Frame#	Time	LSHO			RSHO			LICST			RICST			LASIS			LHEEL			RASIS			LTROC			RTROC			SACR			LTH1			LSK4			LTH2			LTH3			RHM5			LSK2			LTH4			RTH1			LTOE			RTH2			RTH3			RTH4			LLEP			RLEP			LSK1			LSK3			RSK1			LHM5			RSK2			LFT1			RSK3			RSK4			LLME			RLME			RTOE			RHEEL			RFT1			RFT2			LFT2			
		X1	Y1	Z1	X2	Y2	Z2	X3	Y3	Z3	X4	Y4	Z4	X5	Y5	Z5	X6	Y6	Z6	X7	Y7	Z7	X8	Y8	Z8	X9	Y9	Z9	X10	Y10	Z10	X11	Y11	Z11	X12	Y12	Z12	X13	Y13	Z13	X14	Y14	Z14	X15	Y15	Z15	X16	Y16	Z16	X17	Y17	Z17	X18	Y18	Z18	X19	Y19	Z19	X20	Y20	Z20	X21	Y21	Z21	X22	Y22	Z22	X23	Y23	Z23	X24	Y24	Z24	X25	Y25	Z25	X26	Y26	Z26	X27	Y27	Z27	X28	Y28	Z28	X29	Y29	Z29	X30	Y30	Z30	X31	Y31	Z31	X32	Y32	Z32	X33	Y33	Z33	X34	Y34	Z34	X35	Y35	Z35	X36	Y36	Z36	X37	Y37	Z37	X38	Y38	Z38	X39	Y39	Z39	

84	0.415	-1408.04736328125	1503.94775390625	-483.0128479003906	-1294.80615234375	1487.566528320312	-216.3347778320312	-1391.393676757812	1043.272338867188	-466.4555969238281	-1350.437377929688	1041.501831054688	-195.8790588378906	-1349.781616210938	990.3330078125	-443.0047607421875	-1306.669555664062	127.1742324829102	-348.7940979003906	-1331.777709960938	994.7697143554688	-214.1841278076172	-1465.30224609375	924.8180541992188	-489.1265258789062	-1494.54248046875	944.5350952148438	-153.5462341308594	-1511.63916015625	1048.69580078125	-328.2186889648438	-1314.741943359375	718.774169921875	-478.5247802734375	-1311.07275390625	346.0677185058594	-433.0150146484375	-1381.102783203125	686.3792114257812	-457.158935546875	-1263.745483398438	635.63330078125	-455.6947631835938	-1904.823120117188	145.5061340332031	-177.6326293945312	-1314.511596679688	443.6997680664062	-450.0833435058594	-1335.787109375	602.1158447265625	-441.3955688476562	-1460.529174804688	702.9067993164062	-159.2298583984375	-1050.315551757812	169.9895172119141	-391.2076110839844	-1529.973388671875	736.6983642578125	-151.5614013671875	-1500.470947265625	613.3793334960938	-184.6243286132812	-1576.810424804688	648.0386962890625	-170.6908569335938	-1275.794799804688	552.4822387695312	-449.1506042480469	-1591.740844726562	572.7861328125	-176.3090209960938	-1232.74755859375	448.3998718261719	-447.8732299804688	-1231.087158203125	347.3816528320312	-435.1202697753906	-1654.404907226562	463.8013916015625	-171.1449737548828	-1115.692749023438	132.2689361572266	-447.5195007324219	-1719.81591796875	518.2525634765625	-172.4943237304688	-1285.277099609375	103.262321472168	-325.9602966308594	-1725.094360351562	388.4311828613281	-177.6531982421875	-1780.74072265625	443.700927734375	-180.9994659423828	-1255.876953125	167.11083984375	-414.31787109375	-1871.145874023438	291.0402221679688	-190.1713714599609	-1862.880126953125	75.48098754882812	-237.1464538574219	-1894.861328125	335.4354553222656	-245.9970550537109	-1916.858276367188	316.1446838378906	-280.9844665527344	-1927.544067382812	327.5823669433594	-225.9879608154297	-1296.964721679688	95.76951599121094	-380.0578918457031
85	0.42	-1391.781372070312	1503.139526367188	-483.4165649414062	-1278.609985351562	1487.5751953125	-217.0281219482422	-1373.091674804688	1041.546142578125	-466.56201171875	-1333.499755859375	1041.011474609375	-195.9092254638672	-1334.163940429688	987.8663330078124	-443.3034057617188	-1277.759399414062	122.6140289306641	-344.9195251464844	-1315.018798828125	994.3598022460938	-213.833251953125	-1449.187866210938	923.599853515625	-488.4512939453125	-1477.66552734375	944.1162719726562	-153.8538360595703	-1493.444702148438	1047.580078125	-327.9123840332031	-1300.3291015625	715.3970947265625	-478.9496765136719	-1293.479370117188	341.2458190917969	-431.5009460449219	-1367.704467773438	684.2734375	-456.605712890625	-1250.090454101562	631.6161499023438	-454.8379821777344	-1894.100830078125	151.1209259033203	-175.3540344238281	-1298.983276367188	439.3568725585938	-447.9621276855469	-1322.2216796875	599.2471313476562	-439.2374877929688	-1443.513549804688	701.9737548828125	-159.3971099853516	-1025.766967773438	173.9194641113281	-391.2222595214844	-1512.773193359375	735.7523803710938	-151.4480438232422	-1483.423583984375	613.278564453125	-185.0158843994141	-1559.294799804688	647.4821166992188	-170.2659301757812	-1262.679321289062	548.7597045898438	-447.9927062988281	-1574.095336914062	572.40869140625	-176.2356567382812	-1217.282592773438	446.1290588378906	-446.8418579101562	-1213.13330078125	344.8438415527344	-434.9107666015625	-1638.84765625	464.7352905273438	-170.0670776367188	-1090.076171875	132.2689056396484	-446.0784606933594	-1703.641479492188	520.4705810546875	-172.1718292236328	-1258.065673828125	99.69523620605467	-323.6052551269531	-1711.241088867188	389.8900756835938	-177.9440765380859	-1766.212768554688	447.0039978027344	-180.5805969238281	-1230.749755859375	163.1249847412109	-410.952392578125	-1859.600952148438	296.1326293945312	-189.4895477294922	-1852.8984375	80.51463317871094	-233.5618896484375	-1883.6708984375	341.0612182617188	-245.9601745605469	-1904.911987304688	320.6600036621094	-279.7249145507812	-1915.862060546875	333.4692993164062	-225.7173156738281	-1269.337036132812	90.32555389404295	-377.1650695800781
86	0.425	-1375.818725585938	1502.511962890625	-483.8114318847656	-1262.482055664062	1486.744384765625	-217.4282684326172	-1356.1533203125	1040.292236328125	-466.3141174316406	-1316.521484375	1040.66796875	-195.9486389160156	-1316.658081054688	986.685791015625	-442.5004272460938	-1252.098510742188	118.9844512939453	-342.2026672363281	-1298.260131835938	993.576416015625	-213.8467559814453	-1432.595825195312	921.5028076171876	-487.7959899902344	-1460.996704101562	943.317138671875	-153.84326171875	-1476.522705078125	1046.86767578125	-327.9217224121094	-1285.621215820312	711.6959228515625	-479.1614379882812	-1275.365356445312	337.3114318847656	-428.5531005859375	-1353.958984375	682.254150390625	-456.2525939941406	-1236.8037109375	627.8115234375	-454.9530639648438	-1882.974487304688	157.2158203125	-172.927734375	-1283.809692382812	435.3465576171875	-445.6869201660156	-1309.35107421875	596.6676025390625	-438.2508850097656	-1425.733032226562	700.6365356445312	-159.9994506835938	-1002.346862792969	177.8325042724609	-391.559814453125	-1494.886840820312	734.9168090820312	-151.7518768310547	-1465.939331054688	611.64111328125	-184.9178009033203	-1541.626098632812	646.4244995117188	-170.6012878417969	-1249.928100585938	545.064697265625	-447.3064575195312	-1556.375366210938	571.4761962890625	-175.971923828125	-1201.979370117188	443.7368774414062	-445.4885559082031	-1194.04736328125	342.6873474121094	-432.3201599121094	-1623.690185546875	464.98876953125	-169.6549224853516	-1066.020751953125	133.4139556884766	-445.5657653808594	-1685.59130859375	522.0637817382812	-170.5930786132812	-1231.420288085938	96.748779296875	-320.8828125	-1697.512817382812	392.169921875	-175.1026763916016	-1750.415161132812	450.3944396972656	-179.7789916992188	-1206.712890625	160.0624542236328	-408.5983276367188	-1847.795166015625	301.8555908203125	-189.4256744384766	-1842.7109375	85.82283020019531	-231.0245513916016	-1872.178588867188	345.6775817871094	-245.8921661376953	-1894.289672851562	325.35791015625	-279.5558166503906	-1904.237915039062	338.8796691894531	-225.0810089111328	-1242.704711914062	86.4830322265625	-374.28759765625
87	0.43	-1360.158813476562	1501.49853515625	-484.23388671875	-1246.132934570312	1485.794799804688	-218.0801849365234	-1339.922241210938	1038.04443359375	-466.3649597167969	-1299.828002929688	1039.777465820312	-196.7919921875	-1299.09716796875	984.943115234375	-441.9247436523438	-1227.434814453125	115.9455642700195	-339.0244750976562	-1281.508056640625	992.804443359375	-213.7073516845703	-1416.338256835938	919.0678100585938	-487.1859741210938	-1443.322875976562	942.489013671875	-153.5534973144531	-1459.22509765625	1045.787963867188	-328.2273254394531	-1273.294921875	707.35107421875	-481.1903381347656	-1257.071411132812	333.1653137207031	-425.7073059082031	-1339.10595703125	679.3492431640625	-454.9859313964844	-1223.102172851562	623.8854370117188	-454.577880859375	-1870.411499023438	163.3684234619141	-171.0606536865234	-1268.657836914062	431.05859375	-442.9725646972656	-1296.01416015625	593.6747436523438	-436.6653747558594	-1407.094482421875	699.6698608398438	-160.0420074462891	-980.0682373046876	181.5123748779297	-391.9777526855469	-1476.905151367188	733.5840454101562	-151.5553588867188	-1446.691284179688	610.6304321289062	-185.3177337646484	-1523.352172851562	644.8598022460938	-169.7999114990234	-1237.12353515625	540.8690185546875	-445.9461669921875	-1539.009033203125	570.619140625	-174.6709289550781	-1187.130004882812	441.1108703613281	-444.2599792480469	-1176.595092773438	340.4352416992188	-431.6854553222656	-1607.327270507812	464.9802551269531	-168.9557342529297	-1042.741821289062	134.4098510742188	-444.5857849121094	-1669.523559570312	523.8552856445312	-170.0912628173828	-1205.870361328125	94.05112457275392	-318.4136962890625	-1682.477416992188	394.3076782226562	-175.1671905517578	-1734.926025390625	453.5797424316406	-178.8863677978516	-1184.145141601562	157.6656799316406	-407.0339965820312	-1835.59228515625	307.2472534179688	-189.0693664550781	-1831.386962890625	90.79473876953124	-228.608642578125	-1860.541625976562	350.7882690429688	-245.7898406982422	-1883.418212890625	329.925537109375	-278.7177734375	-1892.113647460938	343.7940368652344	-224.4897003173828	-1216.299560546875	82.90586853027344	-370.3886413574219
88	0.435	-1344.000854492188	1499.981323242188	-484.6716003417969	-1229.994750976562	1484.80224609375	-218.4738464355469	-1321.874633789062	1035.885864257812	-466.4681701660156	-1283.661254882812	1038.443359375	-196.3767547607422	-1281.748046875	982.7735595703124	-441.2121276855469	-1203.736572265625	112.083366394043	-336.6120300292969	-1264.504638671875	991.7957763671876	-213.7375183105469	-1399.528076171875	916.2854614257812	-486.0643920898438	-1426.865234375	941.134521484375	-153.5630035400391	-1442.442626953125	1044.603637695312	-328.4668579101562	-1258.738403320312	703.5197143554688	-481.5796508789062	-1240.185791015625	329.6907958984375	-423.1961975097656	-1325.608520507812	677.0557861328125	-454.2078552246094	-1209.46728515625	619.2080078125	-454.3258361816406	-1857.1357421875	168.5044860839844	-168.2852325439453	-1253.642822265625	426.8001708984375	-440.4299926757812	-1282.8359375	590.5957641601562	-435.1774291992188	-1388.704223632812	697.8740234375	-160.5536193847656	-959.0703125	184.3558959960938	-392.3328247070312	-1457.817626953125	731.401611328125	-151.0359649658203	-1428.54931640625	608.5353393554688	-185.762451171875	-1504.722412109375	642.6657104492188	-169.4500274658203	-1224.043334960938	536.7460327148438	-444.7200622558594	-1520.418823242188	568.433837890625	-174.4666442871094	-1172.107666015625	438.5829467773438	-442.6074523925781	-1159.4736328125	338.2985229492188	-430.0906982421875	-1591.0341796875	464.8710632324219	-168.9944763183594	-1021.029968261719	135.3261413574219	-443.7481689453125	-1651.749633789062	525.1016235351562	-169.1205444335938	-1181.3154296875	91.2359619140625	-315.5032653808594	-1668.314819335938	396.4154357910156	-173.998291015625	-1719.076049804688	456.3612060546875	-178.3617553710938	-1162.194580078125	155.1344299316406	-404.4878234863281	-1822.954711914062	312.2876281738281	-189.2135162353516	-1819.101196289062	95.71837615966795	-225.9013061523438	-1848.689086914062	355.693115234375	-245.7516784667969	-1872.239135742188	334.2490844726562	-278.3185729980469	-1880.0791015625	349.1864318847656	-224.0979766845703	-1192.1923828125	79.83396911621094	-368.0816345214844
